<?xml version="1.0" encoding="UTF-8"?>
<svg id="Capa_2" xmlns="http://www.w3.org/2000/svg" viewBox="0 0 759 426">
  <g id="Capa_1-2" data-name="Capa_1">
    <g>
      <path d="M111.04.08c15.33,0,30.66,0,45.99,0-.11,1.65-.32,3.31-.32,4.96.04,26.15,1.12,52.27,2.62,78.36,3.91,67.85,11.14,135.35,21.87,202.46,1.26,7.86,2.75,15.69,4.13,23.53.44-.04.88-.08,1.33-.12,8.18-55.51,14.25-111.23,16.98-167.41,27.51,55.65,32.37,114.81,27.39,175.64,1.6-1.41,2.71-2.83,3.7-4.33,22-33.58,32.68-70.81,35.15-110.55,1.71-27.51-1.27-54.87-3.43-82.26-3.16-40.1-8.52-80.24.56-120.29,10.33,0,20.66,0,30.99,0,.16.8.18,1.66.5,2.39,11.7,27.25,16.84,55.97,19.7,85.28,1.86,19.03.52,37.94-1.22,56.84-4.03,43.7-7.01,87.66-27.58,128.54,8-2.14,14.83-5.75,21.2-10.25,23.47-16.56,36.41-40.15,44.27-67.01,8.24-28.17,9.3-57.06,8.17-86.14-.06-1.67-.6-3.46.6-5.71,4.06,6.92,6.41,13.81,8.31,20.85,8.16,30.22,9.14,61.14,8.78,92.18-.03,2.37-1.21,4.08-2.43,5.87-5.36,7.88-9.73,16.28-13.37,25.08-14.34,34.7-16.91,70.99-14.44,107.93,1.58,23.66,6.17,46.84,11.49,69.89-11,0-22,0-32.99,0-1.5-8.18-3.09-16.34-4.48-24.54-7.28-42.95-8.11-85.77,2.76-128.34,1.36-5.34.94-5.79-4.56-4.63-16.28,3.41-30.15,11.35-41.94,22.91-20.26,19.86-30.44,44.91-36.78,71.91-3.08,13.11-4.63,26.46-6.46,39.88-14.77-40.75-25.53-82.24-24.84-126.52-2.04,1.66-2.25,3.38-2.82,4.88-13.71,36.19-21.86,73.66-25.59,112.11-1.04,10.74-2.19,21.51-1.25,32.34h-49.99c-4.31-40.52-12.51-80.11-28.27-117.91.19,22.72-3.05,44.9-7.71,66.92-3.65,17.28-8.94,34.1-14.02,50.99h-5c-1.89-19.79-5.74-39.16-12.79-57.8-7.04-18.62-16.93-35.43-31.96-48.79-9.66-8.59-20.35-15.48-33.23-18.32,0-24.32,0-48.63,0-72.95,2.64,4.22,5.17,8.52,7.94,12.65,11.56,17.22,26.04,31.11,45.49,39.18,2.94,1.22,5.89,2.72,9.85,2.42-4.69-9.4-8.47-18.6-11.5-28.1-3.04-9.53-5.49-19.21-7.36-29.02-1.84-9.63-3.49-19.32-4.14-30.51,28.46,46.12,67.42,79.6,110.21,109.68.37-1.05.63-1.39.56-1.65-1.01-3.69-2.08-7.36-3.1-11.04-21.28-76.94-30.43-155.69-34.77-235.13-1.02-18.77-1.49-37.56-2.21-56.34Z"/>
      <path d="M409.97.08c11,0,22,0,32.99,0,1.2,5.87,2.51,11.72,3.59,17.61,8.36,45.32,10.2,90.58-1.29,135.72-1.58,6.22-1.32,6.42,5.24,4.97,18.76-4.12,34.03-14.08,46.54-28.36,19.78-22.58,28.84-49.87,33.86-78.8,1.57-9.03,2.51-18.17,3.73-27.27,15.1,40.48,25.55,81.78,25.29,125.27,1.74-.23,1.78-1.39,2.1-2.25,17.85-47.34,27.1-96.31,27.9-146.89h17c.28,1.47.65,2.92.84,4.4,4.31,34.22,12.94,67.29,26.66,98.97,1.68,3.89,3.06,8,5.89,11.38,1.61-1.3,1.83-3.04,2.38-4.57,6.09-16.75,11.08-33.83,15.31-51.15,4.75-19.44,7.57-39.19,9.92-59.02h11c-.54,1.87.16,3.61.54,5.38,6.92,32.29,8.93,64.92,6.76,97.83-.38,5.85-.78,11.71-1.18,17.71,2.53-.26,3.47-1.76,4.64-2.85,9.94-9.22,18.56-19.58,25.96-30.91,17.3-26.49,27.55-55.29,28.26-87.17,4.17,0,8.34.16,12.49-.06,2.16-.11,2.62.41,2.57,2.56-.17,7.49-.07,14.99-.07,22.48,0,52.63,0,105.26,0,157.9-1.99-.41-2.82-2.19-4.06-3.48-11.94-12.39-24.52-24-39.67-32.46-1.56-.87-3.07-2.5-5.58-1.56,13.34,27.05,19.52,55.67,22.1,85.24-28.24-44.67-67.12-78.17-110.87-108.84,28.63,100.37,38.4,201.63,40.11,303.95-15,0-29.99,0-44.99,0-.53-51.81-3.6-103.49-8.21-155.09-4.97-55.61-17.79-147.27-21.75-153.86-4.39,28.11-7.75,56.02-10.62,83.99-2.87,28-4.87,56.08-6.48,84.26-27.45-55.66-32.43-114.76-26.89-175.64-.95.32-1.37.33-1.52.53-1.2,1.6-2.42,3.18-3.5,4.86-23.27,36.18-33.62,76.22-34.79,118.8-.83,30.02,3,59.83,5.33,89.71,2.16,27.73,4.5,55.47,1.4,83.27-.71,6.42-1.94,12.78-2.94,19.17-10.66,0-21.33,0-31.99,0,.31-1.97-.93-3.49-1.58-5.16-13.58-34.92-19.64-71.25-18.83-108.55.55-24.95,2.95-49.87,6.53-74.6,4.1-28.36,8.35-56.73,22.68-82.3.1-.18-.16-.55-.35-1.14-5.61,1.12-10.59,3.74-15.4,6.64-22.93,13.82-36.89,34.7-45.8,59.28-11.33,31.24-13.28,63.7-11.74,96.54.1,2.06.27,4.12.41,6.19-4.58-5.71-6.95-12.18-8.82-18.82-8.73-30.98-9.65-62.73-9.22-94.61.02-1.61.67-2.85,1.53-4.11,14.82-21.8,22.8-46.17,26.63-71.99,6.69-45.09,1.06-89.3-10.02-133.08Z"/>
      <path d="M18.06.08c-.58,16.14.63,32.24,1.48,48.34,1.26,23.75,3.3,47.43,6.39,71.26-1.91-.97-2.06-2.74-2.67-4.14-7.52-17.04-15.18-34.03-21.96-51.4-.29-.75-.82-1.4-1.23-2.1,0-19.65.05-39.31-.07-58.96C-.01.58.55-.1,3.07.01c4.99.23,9.99.07,14.99.07Z"/>
      <path d="M754.9,425.8c-1.15-38.26-3.05-76.47-7.86-114.48-.19-1.47-.04-2.99-.05-4.48l-.06-.06c3.88,7.52,6.49,15.55,9.55,23.41.63,1.62.61,3.64,2.42,4.68,0,28.99-.08,57.99.1,86.98.02,3.45-.74,4.68-4.1,3.96Z"/>
      <polygon points="746.99 306.84 746.79 306.76 746.93 306.78 746.99 306.84"/>
    </g>
  </g>
</svg>